<mxfile host="Electron" modified="2024-03-02T19:37:19.496Z" agent="Mozilla/5.0 (Macintosh; Intel Mac OS X 10_15_7) AppleWebKit/537.36 (KHTML, like Gecko) draw.io/23.1.5 Chrome/120.0.6099.109 Electron/28.1.0 Safari/537.36" etag="ygnYZ-gpRbCMQgJ_jDN1" version="23.1.5" type="device">
  <diagram name="Page-1" id="K5TnG4yaBSOgg7m7bBT9">
    <mxGraphModel dx="828" dy="545" grid="1" gridSize="10" guides="1" tooltips="1" connect="1" arrows="1" fold="1" page="1" pageScale="1" pageWidth="1100" pageHeight="850" math="0" shadow="0">
      <root>
        <mxCell id="0" />
        <mxCell id="1" parent="0" />
        <mxCell id="mAi5bpOYtt7wcQZXJckd-19" value="R2" style="rounded=1;whiteSpace=wrap;html=1;strokeWidth=4;fontFamily=Helvetica;fontSize=20;perimeterSpacing=1;" vertex="1" parent="1">
          <mxGeometry x="380" y="60" width="80" height="80" as="geometry" />
        </mxCell>
        <mxCell id="mAi5bpOYtt7wcQZXJckd-20" value="R8" style="rounded=1;whiteSpace=wrap;html=1;strokeWidth=4;fontFamily=Helvetica;fontSize=20;perimeterSpacing=1;" vertex="1" parent="1">
          <mxGeometry x="620" y="60" width="80" height="80" as="geometry" />
        </mxCell>
        <mxCell id="mAi5bpOYtt7wcQZXJckd-21" value="R3" style="rounded=1;whiteSpace=wrap;html=1;strokeWidth=4;fontFamily=Helvetica;fontSize=20;perimeterSpacing=1;" vertex="1" parent="1">
          <mxGeometry x="380" y="300" width="80" height="80" as="geometry" />
        </mxCell>
        <mxCell id="mAi5bpOYtt7wcQZXJckd-22" value="R7" style="rounded=1;whiteSpace=wrap;html=1;strokeWidth=4;fontFamily=Helvetica;fontSize=20;perimeterSpacing=1;" vertex="1" parent="1">
          <mxGeometry x="620" y="300" width="80" height="80" as="geometry" />
        </mxCell>
        <mxCell id="mAi5bpOYtt7wcQZXJckd-23" value="R4" style="rounded=1;whiteSpace=wrap;html=1;strokeWidth=4;fontFamily=Helvetica;fontSize=20;perimeterSpacing=1;" vertex="1" parent="1">
          <mxGeometry x="380" y="540" width="80" height="80" as="geometry" />
        </mxCell>
        <mxCell id="mAi5bpOYtt7wcQZXJckd-24" value="R6" style="rounded=1;whiteSpace=wrap;html=1;strokeWidth=4;fontFamily=Helvetica;fontSize=20;perimeterSpacing=1;" vertex="1" parent="1">
          <mxGeometry x="620" y="540" width="80" height="80" as="geometry" />
        </mxCell>
        <mxCell id="mAi5bpOYtt7wcQZXJckd-25" value="R1" style="rounded=1;whiteSpace=wrap;html=1;strokeWidth=4;fontFamily=Helvetica;fontSize=20;perimeterSpacing=1;" vertex="1" parent="1">
          <mxGeometry x="220" y="180" width="80" height="80" as="geometry" />
        </mxCell>
        <mxCell id="mAi5bpOYtt7wcQZXJckd-26" value="R9" style="rounded=1;whiteSpace=wrap;html=1;strokeWidth=4;fontFamily=Helvetica;fontSize=20;perimeterSpacing=1;" vertex="1" parent="1">
          <mxGeometry x="780" y="180" width="80" height="80" as="geometry" />
        </mxCell>
        <mxCell id="mAi5bpOYtt7wcQZXJckd-27" value="R5" style="rounded=1;whiteSpace=wrap;html=1;strokeWidth=4;fontFamily=Helvetica;fontSize=20;perimeterSpacing=1;" vertex="1" parent="1">
          <mxGeometry x="500" y="700" width="80" height="80" as="geometry" />
        </mxCell>
        <mxCell id="mAi5bpOYtt7wcQZXJckd-42" value="1" style="ellipse;whiteSpace=wrap;html=1;aspect=fixed;" vertex="1" parent="1">
          <mxGeometry x="290" y="170" width="20" height="20" as="geometry" />
        </mxCell>
        <mxCell id="mAi5bpOYtt7wcQZXJckd-58" value="0" style="ellipse;whiteSpace=wrap;html=1;aspect=fixed;" vertex="1" parent="1">
          <mxGeometry x="370" y="130" width="20" height="20" as="geometry" />
        </mxCell>
        <mxCell id="mAi5bpOYtt7wcQZXJckd-59" value="1" style="ellipse;whiteSpace=wrap;html=1;aspect=fixed;" vertex="1" parent="1">
          <mxGeometry x="410" y="130" width="20" height="20" as="geometry" />
        </mxCell>
        <mxCell id="mAi5bpOYtt7wcQZXJckd-60" value="0" style="ellipse;whiteSpace=wrap;html=1;aspect=fixed;" vertex="1" parent="1">
          <mxGeometry x="410" y="290" width="20" height="20" as="geometry" />
        </mxCell>
        <mxCell id="mAi5bpOYtt7wcQZXJckd-61" value="3" style="ellipse;whiteSpace=wrap;html=1;aspect=fixed;" vertex="1" parent="1">
          <mxGeometry x="370" y="290" width="20" height="20" as="geometry" />
        </mxCell>
        <mxCell id="mAi5bpOYtt7wcQZXJckd-62" value="2" style="ellipse;whiteSpace=wrap;html=1;aspect=fixed;" vertex="1" parent="1">
          <mxGeometry x="450" y="330" width="20" height="20" as="geometry" />
        </mxCell>
        <mxCell id="mAi5bpOYtt7wcQZXJckd-63" value="1" style="ellipse;whiteSpace=wrap;html=1;aspect=fixed;" vertex="1" parent="1">
          <mxGeometry x="410" y="370" width="20" height="20" as="geometry" />
        </mxCell>
        <mxCell id="mAi5bpOYtt7wcQZXJckd-64" value="0" style="ellipse;whiteSpace=wrap;html=1;aspect=fixed;" vertex="1" parent="1">
          <mxGeometry x="410" y="530" width="20" height="20" as="geometry" />
        </mxCell>
        <mxCell id="mAi5bpOYtt7wcQZXJckd-65" value="1" style="ellipse;whiteSpace=wrap;html=1;aspect=fixed;" vertex="1" parent="1">
          <mxGeometry x="650" y="530" width="20" height="20" as="geometry" />
        </mxCell>
        <mxCell id="mAi5bpOYtt7wcQZXJckd-66" value="0" style="ellipse;whiteSpace=wrap;html=1;aspect=fixed;" vertex="1" parent="1">
          <mxGeometry x="650" y="370" width="20" height="20" as="geometry" />
        </mxCell>
        <mxCell id="mAi5bpOYtt7wcQZXJckd-67" value="1" style="ellipse;whiteSpace=wrap;html=1;aspect=fixed;" vertex="1" parent="1">
          <mxGeometry x="650" y="290" width="20" height="20" as="geometry" />
        </mxCell>
        <mxCell id="mAi5bpOYtt7wcQZXJckd-68" value="0" style="ellipse;whiteSpace=wrap;html=1;aspect=fixed;" vertex="1" parent="1">
          <mxGeometry x="650" y="130" width="20" height="20" as="geometry" />
        </mxCell>
        <mxCell id="mAi5bpOYtt7wcQZXJckd-69" value="3" style="ellipse;whiteSpace=wrap;html=1;aspect=fixed;" vertex="1" parent="1">
          <mxGeometry x="610" y="90" width="20" height="20" as="geometry" />
        </mxCell>
        <mxCell id="mAi5bpOYtt7wcQZXJckd-70" value="2" style="ellipse;whiteSpace=wrap;html=1;aspect=fixed;" vertex="1" parent="1">
          <mxGeometry x="450" y="90" width="20" height="20" as="geometry" />
        </mxCell>
        <mxCell id="mAi5bpOYtt7wcQZXJckd-71" value="3" style="ellipse;whiteSpace=wrap;html=1;aspect=fixed;" vertex="1" parent="1">
          <mxGeometry x="770" y="250" width="20" height="20" as="geometry" />
        </mxCell>
        <mxCell id="mAi5bpOYtt7wcQZXJckd-72" value="0" style="ellipse;whiteSpace=wrap;html=1;aspect=fixed;" vertex="1" parent="1">
          <mxGeometry x="770" y="170" width="20" height="20" as="geometry" />
        </mxCell>
        <mxCell id="mAi5bpOYtt7wcQZXJckd-73" value="1" style="ellipse;whiteSpace=wrap;html=1;aspect=fixed;" vertex="1" parent="1">
          <mxGeometry x="690" y="130" width="20" height="20" as="geometry" />
        </mxCell>
        <mxCell id="mAi5bpOYtt7wcQZXJckd-74" value="2" style="ellipse;whiteSpace=wrap;html=1;aspect=fixed;" vertex="1" parent="1">
          <mxGeometry x="290" y="250" width="20" height="20" as="geometry" />
        </mxCell>
        <mxCell id="mAi5bpOYtt7wcQZXJckd-75" value="1" style="ellipse;whiteSpace=wrap;html=1;aspect=fixed;" vertex="1" parent="1">
          <mxGeometry x="450" y="610" width="20" height="20" as="geometry" />
        </mxCell>
        <mxCell id="mAi5bpOYtt7wcQZXJckd-76" value="3" style="ellipse;whiteSpace=wrap;html=1;aspect=fixed;" vertex="1" parent="1">
          <mxGeometry x="450" y="570" width="20" height="20" as="geometry" />
        </mxCell>
        <mxCell id="mAi5bpOYtt7wcQZXJckd-77" value="2" style="ellipse;whiteSpace=wrap;html=1;aspect=fixed;" vertex="1" parent="1">
          <mxGeometry x="610" y="570" width="20" height="20" as="geometry" />
        </mxCell>
        <mxCell id="mAi5bpOYtt7wcQZXJckd-78" value="0" style="ellipse;whiteSpace=wrap;html=1;aspect=fixed;" vertex="1" parent="1">
          <mxGeometry x="610" y="610" width="20" height="20" as="geometry" />
        </mxCell>
        <mxCell id="mAi5bpOYtt7wcQZXJckd-79" value="0" style="ellipse;whiteSpace=wrap;html=1;aspect=fixed;" vertex="1" parent="1">
          <mxGeometry x="490" y="690" width="20" height="20" as="geometry" />
        </mxCell>
        <mxCell id="mAi5bpOYtt7wcQZXJckd-80" value="1" style="ellipse;whiteSpace=wrap;html=1;aspect=fixed;" vertex="1" parent="1">
          <mxGeometry x="570" y="690" width="20" height="20" as="geometry" />
        </mxCell>
        <mxCell id="mAi5bpOYtt7wcQZXJckd-81" value="3" style="ellipse;whiteSpace=wrap;html=1;aspect=fixed;" vertex="1" parent="1">
          <mxGeometry x="610" y="330" width="20" height="20" as="geometry" />
        </mxCell>
        <mxCell id="mAi5bpOYtt7wcQZXJckd-82" value="2" style="ellipse;whiteSpace=wrap;html=1;aspect=fixed;" vertex="1" parent="1">
          <mxGeometry x="690" y="290" width="20" height="20" as="geometry" />
        </mxCell>
        <mxCell id="mAi5bpOYtt7wcQZXJckd-83" value="0" style="ellipse;whiteSpace=wrap;html=1;aspect=fixed;" vertex="1" parent="1">
          <mxGeometry x="290" y="210" width="20" height="20" as="geometry" />
        </mxCell>
        <mxCell id="mAi5bpOYtt7wcQZXJckd-84" value="1" style="ellipse;whiteSpace=wrap;html=1;aspect=fixed;" vertex="1" parent="1">
          <mxGeometry x="770" y="210" width="20" height="20" as="geometry" />
        </mxCell>
        <mxCell id="mAi5bpOYtt7wcQZXJckd-85" value="" style="endArrow=none;html=1;rounded=0;strokeWidth=2;" edge="1" parent="1" source="mAi5bpOYtt7wcQZXJckd-42" target="mAi5bpOYtt7wcQZXJckd-58">
          <mxGeometry width="50" height="50" relative="1" as="geometry">
            <mxPoint x="380" y="300" as="sourcePoint" />
            <mxPoint x="430" y="250" as="targetPoint" />
          </mxGeometry>
        </mxCell>
        <mxCell id="mAi5bpOYtt7wcQZXJckd-86" value="" style="endArrow=none;html=1;rounded=0;exitX=0.5;exitY=0;exitDx=0;exitDy=0;strokeWidth=2;" edge="1" parent="1" source="mAi5bpOYtt7wcQZXJckd-60" target="mAi5bpOYtt7wcQZXJckd-59">
          <mxGeometry width="50" height="50" relative="1" as="geometry">
            <mxPoint x="380" y="300" as="sourcePoint" />
            <mxPoint x="430" y="250" as="targetPoint" />
          </mxGeometry>
        </mxCell>
        <mxCell id="mAi5bpOYtt7wcQZXJckd-87" value="" style="endArrow=none;html=1;rounded=0;strokeWidth=2;" edge="1" parent="1" source="mAi5bpOYtt7wcQZXJckd-64" target="mAi5bpOYtt7wcQZXJckd-63">
          <mxGeometry width="50" height="50" relative="1" as="geometry">
            <mxPoint x="380" y="560" as="sourcePoint" />
            <mxPoint x="430" y="510" as="targetPoint" />
          </mxGeometry>
        </mxCell>
        <mxCell id="mAi5bpOYtt7wcQZXJckd-88" value="" style="endArrow=none;html=1;rounded=0;strokeWidth=2;" edge="1" parent="1" source="mAi5bpOYtt7wcQZXJckd-79" target="mAi5bpOYtt7wcQZXJckd-75">
          <mxGeometry width="50" height="50" relative="1" as="geometry">
            <mxPoint x="430" y="680" as="sourcePoint" />
            <mxPoint x="480" y="630" as="targetPoint" />
          </mxGeometry>
        </mxCell>
        <mxCell id="mAi5bpOYtt7wcQZXJckd-89" value="" style="endArrow=none;html=1;rounded=0;strokeWidth=2;" edge="1" parent="1" source="mAi5bpOYtt7wcQZXJckd-76" target="mAi5bpOYtt7wcQZXJckd-77">
          <mxGeometry width="50" height="50" relative="1" as="geometry">
            <mxPoint x="430" y="680" as="sourcePoint" />
            <mxPoint x="480" y="630" as="targetPoint" />
          </mxGeometry>
        </mxCell>
        <mxCell id="mAi5bpOYtt7wcQZXJckd-90" value="" style="endArrow=none;html=1;rounded=0;strokeWidth=2;" edge="1" parent="1" source="mAi5bpOYtt7wcQZXJckd-80" target="mAi5bpOYtt7wcQZXJckd-78">
          <mxGeometry width="50" height="50" relative="1" as="geometry">
            <mxPoint x="430" y="680" as="sourcePoint" />
            <mxPoint x="480" y="630" as="targetPoint" />
          </mxGeometry>
        </mxCell>
        <mxCell id="mAi5bpOYtt7wcQZXJckd-91" value="" style="endArrow=none;html=1;rounded=0;strokeWidth=2;" edge="1" parent="1" source="mAi5bpOYtt7wcQZXJckd-65" target="mAi5bpOYtt7wcQZXJckd-66">
          <mxGeometry width="50" height="50" relative="1" as="geometry">
            <mxPoint x="670" y="540" as="sourcePoint" />
            <mxPoint x="720" y="490" as="targetPoint" />
          </mxGeometry>
        </mxCell>
        <mxCell id="mAi5bpOYtt7wcQZXJckd-92" value="" style="endArrow=none;html=1;rounded=0;strokeWidth=2;" edge="1" parent="1" source="mAi5bpOYtt7wcQZXJckd-62" target="mAi5bpOYtt7wcQZXJckd-81">
          <mxGeometry width="50" height="50" relative="1" as="geometry">
            <mxPoint x="620" y="440" as="sourcePoint" />
            <mxPoint x="670" y="390" as="targetPoint" />
          </mxGeometry>
        </mxCell>
        <mxCell id="mAi5bpOYtt7wcQZXJckd-93" value="" style="endArrow=none;html=1;rounded=0;" edge="1" parent="1" source="mAi5bpOYtt7wcQZXJckd-82" target="mAi5bpOYtt7wcQZXJckd-71">
          <mxGeometry width="50" height="50" relative="1" as="geometry">
            <mxPoint x="620" y="340" as="sourcePoint" />
            <mxPoint x="670" y="290" as="targetPoint" />
          </mxGeometry>
        </mxCell>
        <mxCell id="mAi5bpOYtt7wcQZXJckd-94" value="" style="endArrow=none;html=1;rounded=0;entryX=0;entryY=0.5;entryDx=0;entryDy=0;strokeWidth=2;" edge="1" parent="1" source="mAi5bpOYtt7wcQZXJckd-73" target="mAi5bpOYtt7wcQZXJckd-72">
          <mxGeometry width="50" height="50" relative="1" as="geometry">
            <mxPoint x="620" y="230" as="sourcePoint" />
            <mxPoint x="670" y="180" as="targetPoint" />
          </mxGeometry>
        </mxCell>
        <mxCell id="mAi5bpOYtt7wcQZXJckd-95" value="" style="endArrow=none;html=1;rounded=0;strokeWidth=2;" edge="1" parent="1" source="mAi5bpOYtt7wcQZXJckd-67" target="mAi5bpOYtt7wcQZXJckd-68">
          <mxGeometry width="50" height="50" relative="1" as="geometry">
            <mxPoint x="620" y="220" as="sourcePoint" />
            <mxPoint x="670" y="170" as="targetPoint" />
          </mxGeometry>
        </mxCell>
        <mxCell id="mAi5bpOYtt7wcQZXJckd-96" value="" style="endArrow=none;html=1;rounded=0;strokeWidth=2;" edge="1" parent="1" source="mAi5bpOYtt7wcQZXJckd-70" target="mAi5bpOYtt7wcQZXJckd-69">
          <mxGeometry width="50" height="50" relative="1" as="geometry">
            <mxPoint x="530" y="220" as="sourcePoint" />
            <mxPoint x="580" y="170" as="targetPoint" />
          </mxGeometry>
        </mxCell>
        <mxCell id="mAi5bpOYtt7wcQZXJckd-97" value="" style="endArrow=none;html=1;rounded=0;" edge="1" parent="1" source="mAi5bpOYtt7wcQZXJckd-74" target="mAi5bpOYtt7wcQZXJckd-61">
          <mxGeometry width="50" height="50" relative="1" as="geometry">
            <mxPoint x="460" y="220" as="sourcePoint" />
            <mxPoint x="510" y="170" as="targetPoint" />
          </mxGeometry>
        </mxCell>
        <mxCell id="mAi5bpOYtt7wcQZXJckd-98" value="" style="endArrow=none;html=1;rounded=0;strokeWidth=2;" edge="1" parent="1" source="mAi5bpOYtt7wcQZXJckd-83" target="mAi5bpOYtt7wcQZXJckd-84">
          <mxGeometry width="50" height="50" relative="1" as="geometry">
            <mxPoint x="380" y="250" as="sourcePoint" />
            <mxPoint x="430" y="200" as="targetPoint" />
          </mxGeometry>
        </mxCell>
        <mxCell id="mAi5bpOYtt7wcQZXJckd-99" value="3" style="ellipse;whiteSpace=wrap;html=1;aspect=fixed;" vertex="1" parent="1">
          <mxGeometry x="250" y="250" width="20" height="20" as="geometry" />
        </mxCell>
        <mxCell id="mAi5bpOYtt7wcQZXJckd-100" value="2" style="ellipse;whiteSpace=wrap;html=1;aspect=fixed;" vertex="1" parent="1">
          <mxGeometry x="370" y="570" width="20" height="20" as="geometry" />
        </mxCell>
        <mxCell id="mAi5bpOYtt7wcQZXJckd-101" value="2" style="ellipse;whiteSpace=wrap;html=1;aspect=fixed;" vertex="1" parent="1">
          <mxGeometry x="810" y="250" width="20" height="20" as="geometry" />
        </mxCell>
        <mxCell id="mAi5bpOYtt7wcQZXJckd-102" value="3" style="ellipse;whiteSpace=wrap;html=1;aspect=fixed;" vertex="1" parent="1">
          <mxGeometry x="690" y="570" width="20" height="20" as="geometry" />
        </mxCell>
        <mxCell id="mAi5bpOYtt7wcQZXJckd-103" value="" style="endArrow=none;html=1;rounded=0;edgeStyle=orthogonalEdgeStyle;strokeWidth=2;" edge="1" parent="1" source="mAi5bpOYtt7wcQZXJckd-100" target="mAi5bpOYtt7wcQZXJckd-99">
          <mxGeometry width="50" height="50" relative="1" as="geometry">
            <mxPoint x="490" y="410" as="sourcePoint" />
            <mxPoint x="540" y="360" as="targetPoint" />
          </mxGeometry>
        </mxCell>
        <mxCell id="mAi5bpOYtt7wcQZXJckd-104" value="" style="endArrow=none;html=1;rounded=0;edgeStyle=orthogonalEdgeStyle;strokeWidth=2;" edge="1" parent="1" source="mAi5bpOYtt7wcQZXJckd-102" target="mAi5bpOYtt7wcQZXJckd-101">
          <mxGeometry width="50" height="50" relative="1" as="geometry">
            <mxPoint x="490" y="410" as="sourcePoint" />
            <mxPoint x="540" y="360" as="targetPoint" />
          </mxGeometry>
        </mxCell>
        <mxCell id="mAi5bpOYtt7wcQZXJckd-105" value="3" style="ellipse;whiteSpace=wrap;html=1;aspect=fixed;" vertex="1" parent="1">
          <mxGeometry x="370" y="90" width="20" height="20" as="geometry" />
        </mxCell>
        <mxCell id="mAi5bpOYtt7wcQZXJckd-106" value="2" style="ellipse;whiteSpace=wrap;html=1;aspect=fixed;" vertex="1" parent="1">
          <mxGeometry x="690" y="90" width="20" height="20" as="geometry" />
        </mxCell>
        <mxCell id="mAi5bpOYtt7wcQZXJckd-108" value="2" style="ellipse;whiteSpace=wrap;html=1;aspect=fixed;" vertex="1" parent="1">
          <mxGeometry x="490" y="750" width="20" height="20" as="geometry" />
        </mxCell>
        <mxCell id="mAi5bpOYtt7wcQZXJckd-109" value="3" style="ellipse;whiteSpace=wrap;html=1;aspect=fixed;" vertex="1" parent="1">
          <mxGeometry x="570" y="750" width="20" height="20" as="geometry" />
        </mxCell>
        <mxCell id="mAi5bpOYtt7wcQZXJckd-110" value="" style="endArrow=none;html=1;rounded=0;edgeStyle=orthogonalEdgeStyle;strokeWidth=2;" edge="1" parent="1" source="mAi5bpOYtt7wcQZXJckd-108" target="mAi5bpOYtt7wcQZXJckd-105">
          <mxGeometry width="50" height="50" relative="1" as="geometry">
            <mxPoint x="460" y="740" as="sourcePoint" />
            <mxPoint x="360" y="100" as="targetPoint" />
            <Array as="points">
              <mxPoint x="160" y="760" />
              <mxPoint x="160" y="100" />
            </Array>
          </mxGeometry>
        </mxCell>
        <mxCell id="mAi5bpOYtt7wcQZXJckd-111" value="" style="endArrow=none;html=1;rounded=0;edgeStyle=orthogonalEdgeStyle;strokeWidth=2;" edge="1" parent="1" source="mAi5bpOYtt7wcQZXJckd-109" target="mAi5bpOYtt7wcQZXJckd-106">
          <mxGeometry width="50" height="50" relative="1" as="geometry">
            <mxPoint x="490" y="270" as="sourcePoint" />
            <mxPoint x="540" y="220" as="targetPoint" />
            <Array as="points">
              <mxPoint x="920" y="760" />
              <mxPoint x="920" y="100" />
            </Array>
          </mxGeometry>
        </mxCell>
      </root>
    </mxGraphModel>
  </diagram>
</mxfile>
